<svg width="606" height="110" viewBox="0 0 606 110" fill="none" xmlns="http://www.w3.org/2000/svg">
<path d="M0.7585 0.391998H3.3185L18.8705 27.912L34.3585 0.391998H36.7265V44.936H0.7585V0.391998ZM3.1265 42.632H34.3585V5.192L19.9585 30.536H17.7185L3.1265 4.808V42.632ZM48.1335 0.455997H50.5015V27.976C50.5015 30.792 51.2055 33.3947 52.6135 35.784C54.0215 38.1733 55.9202 40.072 58.3095 41.48C60.6988 42.888 63.3015 43.592 66.1175 43.592C68.9335 43.592 71.5362 42.888 73.9255 41.48C76.3148 40.072 78.2135 38.1733 79.6215 35.784C81.0295 33.3947 81.7335 30.792 81.7335 27.976V0.455997H84.1015V27.976C84.1015 31.2187 83.2908 34.2267 81.6695 37C80.0482 39.7307 77.8508 41.9067 75.0775 43.528C72.3468 45.1493 69.3602 45.96 66.1175 45.96C62.8748 45.96 59.8668 45.1493 57.0935 43.528C54.3628 41.9067 52.1868 39.7307 50.5655 37C48.9442 34.2267 48.1335 31.2187 48.1335 27.976V0.455997ZM96.3405 45V0.455997H98.7085V21.512H128.277V0.455997H130.645V45H128.277V23.88H98.7085V45H96.3405ZM159.652 0.455997H162.148L180.452 45H177.892L171.876 30.28H149.924L143.844 45H141.348L159.652 0.455997ZM150.884 27.976H170.916L160.868 3.528L150.884 27.976ZM192.627 45H190.259V0.455997H192.819L208.371 27.912L223.859 0.455997H226.227V45H223.859V5.192L209.459 30.6H207.219L192.627 4.872V45ZM240.002 45H237.634V0.455997H240.194L255.746 27.912L271.234 0.455997H273.602V45H271.234V5.192L256.834 30.6H254.594L240.002 4.872V45ZM301.777 0.455997H304.273L322.577 45H320.017L314.001 30.28H292.049L285.969 45H283.473L301.777 0.455997ZM293.009 27.976H313.041L302.993 3.528L293.009 27.976ZM349.92 0.455997C353.162 0.455997 356.149 1.26666 358.88 2.888C361.653 4.50933 363.85 6.70667 365.472 9.48C367.093 12.2107 367.904 15.1973 367.904 18.44V27.016C367.904 30.2587 367.093 33.2667 365.472 36.04C363.85 38.7707 361.653 40.9467 358.88 42.568C356.149 44.1893 353.162 45 349.92 45H333.472V0.455997H349.92ZM365.536 18.44C365.536 15.624 364.832 13.0213 363.424 10.632C362.016 8.24266 360.096 6.344 357.664 4.936C355.274 3.528 352.672 2.824 349.856 2.824H335.84V42.632H349.856C352.672 42.632 355.274 41.928 357.664 40.52C360.096 39.112 362.016 37.2133 363.424 34.824C364.832 32.4347 365.536 29.832 365.536 27.016V18.44ZM445.118 45.96C441.875 45.96 438.867 45.1493 436.094 43.528C433.363 41.9067 431.187 39.7307 429.566 37C427.944 34.2267 427.134 31.2187 427.134 27.976V0.455997H463.102V27.976C463.102 31.2187 462.291 34.2267 460.67 37C459.048 39.7307 456.851 41.9067 454.078 43.528C451.347 45.1493 448.36 45.96 445.118 45.96ZM476.877 45H474.509V0.455997H477.069L492.621 27.912L508.109 0.455997H510.477V45H508.109V5.192L493.709 30.6H491.469L476.877 4.872V45ZM538.652 0.455997H541.148L559.452 45H556.892L550.876 30.28H528.924L522.844 45H520.348L538.652 0.455997ZM529.884 27.976H549.916L539.868 3.528L529.884 27.976ZM596.907 1.928C599.467 3.12266 601.472 4.89333 602.923 7.24C604.416 9.58666 605.163 12.1893 605.163 15.048C605.163 18.376 604.139 21.3627 602.091 24.008C600.085 26.6107 597.504 28.3387 594.347 29.192L605.675 45H602.859L591.915 29.64L589.867 29.704H573.803V45H571.435V0.455997H588.395C590.272 0.455997 591.872 0.583997 593.195 0.839996C594.56 1.05333 595.797 1.416 596.907 1.928ZM590.507 27.336C592.725 27.336 594.773 26.7813 596.651 25.672C598.528 24.5627 600.021 23.0693 601.131 21.192C602.24 19.3147 602.795 17.2667 602.795 15.048C602.795 12.5733 602.133 10.3333 600.811 8.328C599.531 6.32267 597.739 4.82933 595.435 3.848C593.771 3.16533 591.424 2.824 588.395 2.824H573.803V27.336H590.507ZM158.172 109H116.188L137.18 63.496L158.172 109ZM119.9 106.632H154.46L137.18 69.128L119.9 106.632ZM170.795 109V64.456H173.163V106.632H204.203V109H170.795ZM296.969 64.456V66.824H266.313V81.096H290.889V92.36H266.313V109H263.945V64.456H296.969ZM325.464 64.456H327.96L346.264 109H343.704L337.688 94.28H315.736L309.656 109H307.16L325.464 64.456ZM316.696 91.976H336.728L326.68 67.528L316.696 91.976ZM373.287 109.96C370.258 109.96 367.442 109.277 364.839 107.912C362.236 106.504 360.103 104.584 358.439 102.152C356.775 99.72 355.794 97.032 355.495 94.088H357.863C358.162 96.6053 359.036 98.9093 360.487 101C361.938 103.048 363.772 104.669 365.991 105.864C368.252 107.016 370.684 107.592 373.287 107.592C376.146 107.592 378.77 106.888 381.159 105.48C383.548 104.072 385.447 102.131 386.855 99.656C388.263 97.1813 388.967 94.408 388.967 91.336V66.824H368.999V64.456H391.271V91.336C391.271 94.8347 390.46 98.0133 388.839 100.872C387.26 103.688 385.084 105.907 382.311 107.528C379.58 109.149 376.572 109.96 373.287 109.96ZM420.214 64.456H422.71L441.014 109H438.454L432.438 94.28H410.486L404.406 109H401.91L420.214 64.456ZM411.446 91.976H431.478L421.43 67.528L411.446 91.976ZM478.469 65.928C481.029 67.1227 483.034 68.8933 484.485 71.24C485.978 73.5867 486.725 76.1893 486.725 79.048C486.725 82.376 485.701 85.3627 483.653 88.008C481.648 90.6107 479.066 92.3387 475.909 93.192L487.237 109H484.421L473.477 93.64L471.429 93.704H455.365V109H452.997V64.456H469.957C471.834 64.456 473.434 64.584 474.757 64.84C476.122 65.0533 477.36 65.416 478.469 65.928ZM472.069 91.336C474.288 91.336 476.336 90.7813 478.213 89.672C480.09 88.5627 481.584 87.0693 482.693 85.192C483.802 83.3147 484.357 81.2667 484.357 79.048C484.357 76.5733 483.696 74.3333 482.373 72.328C481.093 70.3227 479.301 68.8293 476.997 67.848C475.333 67.1653 472.986 66.824 469.957 66.824H455.365V91.336H472.069Z" fill="url(#paint0_linear_111_2)"/>
<defs>
<linearGradient id="paint0_linear_111_2" x1="611" y1="-12.9999" x2="-5.00002" y2="115" gradientUnits="userSpaceOnUse">
<stop stop-color="#51FFC0"/>
<stop offset="1" stop-color="#5754FF"/>
</linearGradient>
</defs>
</svg>
